<svg width="24" height="24" viewBox="0 0 24 24" fill="none" xmlns="http://www.w3.org/2000/svg">
<path d="M2.25944 9.633L2.25944 9.63292C2.41628 6.70266 4.81273 4.25 7.80087 4.25C9.39723 4.25 10.6161 5.10208 11.4263 5.85687C11.7942 6.19965 12.0975 6.54123 12.3207 6.79536C12.3283 6.78709 12.3359 6.77872 12.3437 6.77025C12.5717 6.52142 12.8778 6.18734 13.2393 5.85414C14.0472 5.10948 15.2554 4.25 16.8014 4.25C19.7896 4.25 22.186 6.70268 22.3427 9.633L22.3427 9.63302C22.4312 11.2878 21.8896 12.5408 21.1748 13.6278L20.5482 13.2157L21.1748 13.6278C20.4468 14.7349 18.6154 16.493 16.8749 17.938C15.9917 18.6713 15.1013 19.3494 14.3438 19.8486C13.9662 20.0975 13.6081 20.3109 13.2919 20.465C13.0076 20.6036 12.6493 20.75 12.3096 20.75C11.9708 20.75 11.6126 20.6012 11.3318 20.4634C11.0174 20.309 10.6599 20.0952 10.2821 19.8459C9.52423 19.3457 8.63052 18.6665 7.74331 17.9324C6.85461 17.1971 5.96044 16.3969 5.20177 15.6503C4.45384 14.9144 3.80161 14.1957 3.42778 13.6284L2.25944 9.633ZM2.25944 9.633C2.17104 11.2875 2.71385 12.5451 3.42775 13.6283L2.25944 9.633Z" fill="#FF143C" stroke="black" stroke-width="1.5"/>
</svg>
